<svg width="96" height="25" viewBox="0 0 96 25" fill="none" xmlns="http://www.w3.org/2000/svg">
  <g clip-path="url(#clip0_237_39)">
    <path fill-rule="evenodd" clip-rule="evenodd"
      d="M14.5423 2.12266C14.5423 0.917197 15.5754 0 16.7893 0C18.0031 0 18.9846 0.917197 18.9846 2.12266C18.9846 3.32812 18.0031 4.27152 16.7893 4.27152C15.5754 4.27152 14.5423 3.32812 14.5423 2.12266ZM3.79655 13.6007H0C0 16.8502 2.58269 19.1825 6.45671 19.1825C9.60759 19.1825 12.8101 17.4791 12.8618 13.889C12.9134 12.1594 12.2936 9.69606 7.9805 8.43819L5.8627 7.75684C4.1323 7.25893 3.95151 6.39415 3.95151 5.92245C3.95151 4.84801 4.93293 4.11426 6.2501 4.11426C7.74806 4.11426 8.54869 4.95284 8.54869 6.1583H12.3194C12.3194 2.69915 9.73672 0.628906 6.30175 0.628906C2.89261 0.628906 0.180788 2.80397 0.180788 6.02727C0.180788 7.65202 0.852286 9.98432 4.77797 11.216L6.9216 11.8187C8.72948 12.3428 9.09105 13.0504 9.06523 13.8628C9.0394 15.042 7.9805 15.7758 6.45671 15.7758C4.75214 15.7758 3.8482 14.7537 3.79655 13.6007ZM18.5709 18.8943V6.65625H15.0068V18.8943H18.5709ZM27.1866 9.85352C28.6845 9.85352 30.105 10.9017 30.105 12.7361C30.105 14.5181 28.6587 15.7236 27.1866 15.7236C25.6628 15.7236 24.2939 14.5705 24.2939 12.7361C24.2939 11.0066 25.6628 9.85352 27.1866 9.85352ZM26.8506 21.7243C25.6367 21.7243 24.2162 20.8858 23.803 19.7589C23.3512 19.9816 22.8542 20.2305 22.3572 20.4793C21.86 20.7283 21.3624 20.9775 20.9104 21.2002C21.9177 23.4801 24.1904 25 26.8506 25C31.1378 25 33.6689 22.4581 33.6689 17.1908V6.6561H30.1822V8.17603C29.5882 7.04918 28.0644 6.39404 26.5665 6.39404C23.4673 6.39404 20.5488 8.88358 20.5488 12.8144C20.5488 16.6667 23.4673 19.1562 26.5665 19.1562C28.0644 19.1562 29.6141 18.501 30.1822 17.3742C30.3372 19.8113 29.5882 21.7243 26.8506 21.7243ZM39.5558 12.4213V18.8941H35.9658V6.6561H39.5558V8.43808C40.2014 7.20642 41.6219 6.39404 43.0424 6.39404C45.7542 6.39404 47.4588 8.09741 47.4588 11.5828V18.8941H43.8688V12.3689C43.8688 10.7442 42.9907 9.9318 41.7769 9.9318C40.5113 9.9318 39.5558 10.5607 39.5558 12.4213ZM53.3375 18.8943V6.65625H49.7734V18.8943H53.3375ZM49.3088 2.12266C49.3088 0.917197 50.3419 0 51.5558 0C52.7696 0 53.7511 0.917197 53.7511 2.12266C53.7511 3.32812 52.7696 4.27152 51.5558 4.27152C50.3419 4.27152 49.3088 3.32812 49.3088 2.12266ZM63.3632 3.48535V0H62.7692C59.3084 0 57.3197 2.07025 57.3197 5.81765V6.65623H55.047V9.53885H57.3197V18.8943H60.9355V9.53885H63.3632V6.65623H60.9355V5.81765C60.9355 4.37634 61.5295 3.48535 62.7692 3.48535H63.3632ZM68.7389 6.65625V18.8943H65.1748V6.65625H68.7389ZM66.9571 0C65.7432 0 64.7102 0.917197 64.7102 2.12266C64.7102 3.32812 65.7432 4.27152 66.9571 4.27152C68.171 4.27152 69.1524 3.32812 69.1524 2.12266C69.1524 0.917197 68.171 0 66.9571 0ZM70.5264 12.7358C70.5264 8.88358 73.6256 6.39404 77.0864 6.39404C79.23 6.39404 81.167 7.33745 82.3292 8.9884L79.4108 11.1111C78.9201 10.3249 78.0162 9.87939 77.0864 9.87939C75.5626 9.87939 74.0905 10.98 74.0905 12.7358C74.0905 14.4916 75.5626 15.6708 77.0864 15.6708C78.0162 15.6708 78.9201 15.2253 79.4108 14.4392L82.3292 16.5356C81.1929 18.1866 79.2558 19.1562 77.0864 19.1562C73.6256 19.1562 70.5264 16.588 70.5264 12.7358ZM92.4356 17.5052V18.8941H95.9997V6.6561H92.4356V8.01879C91.5058 6.6561 89.698 6.39404 88.9232 6.39404C85.8498 6.39404 82.7764 8.83117 82.7764 12.762C82.7764 16.6929 85.8498 19.13 88.9232 19.13C89.8529 19.13 91.6608 18.6845 92.4356 17.5052ZM89.5178 15.6712C88.0199 15.6712 86.4961 14.5181 86.4961 12.7623C86.4961 11.0066 88.0199 9.85352 89.5178 9.85352C90.99 9.85352 92.4363 10.9279 92.4363 12.7623C92.4363 14.5967 90.99 15.6712 89.5178 15.6712Z"
      fill="white" />
    <path
      d="M71.464 22.536V25H70.504V20.8H71.464V21.248C71.696 20.968 72.056 20.72 72.616 20.72C73.12 20.72 73.496 20.944 73.728 21.304C73.984 21.032 74.384 20.72 75.032 20.72C75.896 20.72 76.456 21.328 76.456 22.232V25H75.496V22.512C75.496 21.992 75.304 21.616 74.792 21.616C74.384 21.616 73.96 21.936 73.96 22.536V25H73V22.512C73 21.992 72.808 21.616 72.296 21.616C71.888 21.616 71.464 21.936 71.464 22.536ZM81.2177 22.904C81.2177 24.208 80.3777 25.088 79.1937 25.088C78.0097 25.088 77.1697 24.208 77.1697 22.904C77.1697 21.6 78.0097 20.72 79.1937 20.72C80.3777 20.72 81.2177 21.6 81.2177 22.904ZM78.1377 22.904C78.1377 23.76 78.5457 24.28 79.1937 24.28C79.8417 24.28 80.2497 23.76 80.2497 22.904C80.2497 22.048 79.8417 21.528 79.1937 21.528C78.5457 21.528 78.1377 22.048 78.1377 22.904ZM83.8794 25H82.9114L81.3754 20.8H82.3834L83.4074 23.848L84.4234 20.8H85.4154L83.8794 25ZM85.9177 20.24V19.256H86.9097V20.24H85.9177ZM86.8937 20.8V25H85.9337V20.8H86.8937ZM89.6784 25.088C88.4784 25.088 87.6384 24.2 87.6384 22.904C87.6384 21.672 88.4704 20.72 89.6384 20.72C90.8544 20.72 91.5024 21.64 91.5024 22.792V23.112H88.5584C88.6304 23.832 89.0624 24.272 89.6784 24.272C90.1504 24.272 90.5264 24.032 90.6544 23.6L91.4784 23.912C91.1824 24.648 90.5184 25.088 89.6784 25.088ZM89.6304 21.528C89.1344 21.528 88.7504 21.824 88.6064 22.392H90.5344C90.5264 21.928 90.2384 21.528 89.6304 21.528ZM91.7828 24.2L92.5028 23.624C92.7508 24.032 93.2308 24.304 93.7188 24.304C94.1268 24.304 94.5028 24.16 94.5028 23.784C94.5028 23.424 94.1508 23.384 93.4868 23.248C92.8228 23.112 92.0628 22.944 92.0628 22.048C92.0628 21.28 92.7348 20.72 93.7028 20.72C94.4388 20.72 95.0948 21.048 95.3988 21.512L94.7508 22.096C94.5108 21.72 94.1108 21.504 93.6468 21.504C93.2548 21.504 92.9988 21.68 92.9988 21.96C92.9988 22.264 93.3028 22.32 93.8307 22.432C94.5428 22.584 95.4388 22.736 95.4388 23.696C95.4388 24.544 94.6628 25.088 93.7108 25.088C92.9348 25.088 92.1588 24.776 91.7828 24.2Z"
      fill="white" />
  </g>
  <defs>
    <clipPath id="clip0_237_39">
      <rect width="96" height="25" fill="white" />
    </clipPath>
  </defs>
</svg>